<svg width="16" height="16" viewBox="0 0 16 16" fill="none" xmlns="http://www.w3.org/2000/svg">
<path d="M7.99999 1.33331L8.07799 1.33798C8.2268 1.35553 8.36536 1.4227 8.47132 1.52865C8.57727 1.63461 8.64444 1.77317 8.66199 1.92198L8.66666 1.99998V4.66665L8.66999 4.76665C8.69385 5.08409 8.83049 5.38253 9.05523 5.608C9.27997 5.83347 9.57796 5.97109 9.89532 5.99598L9.99999 5.99998H12.6667L12.7447 6.00465C12.8935 6.0222 13.032 6.08937 13.138 6.19532C13.2439 6.30128 13.3111 6.43984 13.3287 6.58865L13.3333 6.66665V12.6666C13.3334 13.1768 13.1384 13.6677 12.7885 14.0388C12.4385 14.41 11.9599 14.6334 11.4507 14.6633L11.3333 14.6666H4.66666C4.15652 14.6667 3.66565 14.4718 3.29448 14.1218C2.92332 13.7718 2.69992 13.2932 2.66999 12.784L2.66666 12.6666V3.33331C2.66663 2.82317 2.86154 2.3323 3.21151 1.96114C3.56148 1.58998 4.04006 1.36657 4.54932 1.33665L4.66666 1.33331H7.99999ZM7.99999 6.66665C7.82318 6.66665 7.65361 6.73688 7.52859 6.86191C7.40356 6.98693 7.33332 7.1565 7.33332 7.33331V9.72331L6.80466 9.19531C6.68986 9.08053 6.53713 9.01157 6.37511 9.00139C6.21309 8.9912 6.05293 9.04048 5.92466 9.13998L5.86199 9.19531C5.73701 9.32033 5.6668 9.48987 5.6668 9.66665C5.6668 9.84342 5.73701 10.013 5.86199 10.138L7.52866 11.8046L7.55799 11.8326L7.60332 11.8693L7.67666 11.9166L7.75266 11.9526L7.82266 11.976L7.92266 11.996L7.99999 12L8.07799 11.9953L8.15599 11.982L8.22799 11.96L8.28199 11.9373L8.34732 11.9026L8.40866 11.86L8.47132 11.8046L10.138 10.138C10.263 10.013 10.3332 9.84342 10.3332 9.66665C10.3332 9.48987 10.263 9.32033 10.138 9.19531L10.0753 9.13998C9.94705 9.04048 9.78689 8.9912 9.62487 9.00139C9.46285 9.01157 9.31012 9.08053 9.19532 9.19531L8.66666 9.72265V7.33331C8.66664 7.17002 8.60669 7.01242 8.49818 6.8904C8.38967 6.76837 8.24016 6.69042 8.07799 6.67131L7.99999 6.66665ZM9.99932 1.99931L12.6667 4.66665H9.99999L9.99932 1.99931Z" fill="white"/>
</svg>
