<svg width="33" height="32" viewBox="0 0 33 32" fill="none" xmlns="http://www.w3.org/2000/svg">
<g clip-path="url(#clip0_10_103)">
<path d="M25.035 0H8.03503C3.8929 0 0.535034 3.35786 0.535034 7.5V24.5C0.535034 28.6421 3.8929 32 8.03503 32H25.035C29.1772 32 32.535 28.6421 32.535 24.5V7.5C32.535 3.35786 29.1772 0 25.035 0Z" fill="#E14E1D"/>
<path d="M6.53503 4.75L7.61128 16.8241H21.45L20.9857 22.0029L16.5299 23.2076L12.0825 22.0046L11.7852 18.6794H7.77753L8.35066 25.0895L16.529 27.361L24.7178 25.0895L25.8157 12.8319H11.263L10.8977 8.74312H26.1774L26.535 4.75H6.53503Z" fill="white"/>
<path d="M16.535 4.75H6.53503L7.61128 16.8241H16.535V12.8319H11.263L10.8977 8.74312H16.535V4.75ZM16.535 23.2059L16.5299 23.2076L12.0825 22.0046L11.7852 18.6794H7.77753L8.35066 25.0895L16.529 27.361L16.5352 27.3592L16.535 23.2059Z" fill="#EBEBEB"/>
</g>
<defs>
<clipPath id="clip0_10_103">
<rect width="32" height="32" fill="white" transform="translate(0.535034)"/>
</clipPath>
</defs>
</svg>
