<svg width="32" height="32" viewBox="0 0 32 32" fill="none" xmlns="http://www.w3.org/2000/svg">
<g clip-path="url(#clip0_10_91)">
<path fill-rule="evenodd" clip-rule="evenodd" d="M20.7503 19.9144C21.6857 21.4498 22.1992 22.4491 22.5582 23.6204C21.6387 24.3077 20.697 24.9939 19.3285 25.4568L19.352 28.9734C17.2852 29.5094 15.1785 29.483 12.6401 28.9984C12.6789 28.4699 12.6514 27.2112 12.6752 26.8263C15.8334 25.6626 19.1195 23.4804 20.7503 19.9144ZM4.99098 18.7414C9.77436 22.4739 13.0282 22.1006 15.043 22.0467C14.1717 23.6294 13.2911 24.5683 12.7377 25.3739C11.3907 24.7905 10.2332 24.2184 9.39561 23.6351C8.57911 24.1239 7.70355 24.2409 6.42486 25.2104C5.76386 24.5247 4.10486 22.7571 3.04236 19.5979L4.99098 18.7414ZM25.9207 14.2153C26.1519 15.2198 25.8918 16.3723 25.8102 17.8015L28.883 19.5858C28.808 20.8676 27.0297 24.2249 25.5263 25.3571L23.8531 24.3521C24.1985 21.3274 24.4231 17.8507 21.7432 13.7906C22.7907 13.6233 25.3735 13.9576 25.9207 14.2153ZM16.0835 13.3946C17.407 13.4196 18.614 14.4859 18.614 15.9639C18.614 17.9346 16.8142 19.1735 14.7615 18.1876C12.723 17.0107 13.511 13.3721 16.0835 13.3947M6.41592 6.60138C7.7818 7.41481 7.6518 7.30925 8.31592 7.70169C7.33811 13.4286 9.23392 16.8485 10.3534 18.1611C10.3342 18.1611 9.64305 18.2065 6.23655 17.7468C5.86842 16.5479 6.11342 14.0843 6.11342 14.0843L3.12567 12.3206C3.88192 9.80944 5.40561 8.00294 6.41586 6.60125M19.4885 6.48281C20.9217 7.13294 21.5877 7.74487 22.6271 8.35437L25.5606 6.64925C28.26 9.56769 28.4268 11.3349 28.8341 12.3786L27.1266 13.4231C25.2347 11.8762 21.0709 9.52794 17.066 9.90806C17.5887 8.53106 19.0582 6.75688 19.4885 6.48281ZM19.361 3.02719L19.3914 5.11294C15.5723 6.52644 13.0129 8.9825 11.2295 12.0807C10.5803 11.0507 9.8998 10.1149 9.52161 8.27181C10.4186 7.53487 11.4309 6.88644 12.6504 6.39744L12.6202 2.95138C14.8864 2.51787 17.2262 2.29269 19.361 3.02719ZM7.98192 29.8466C-2.66064 23.7111 -2.66064 8.28894 7.98192 2.15337C18.6246 -3.98219 32 3.72894 32 16.0001C32 28.2711 18.6246 35.9823 7.98198 29.8467" fill="#0D99FF"/>
</g>
<defs>
<clipPath id="clip0_10_91">
<rect width="32" height="32" fill="white"/>
</clipPath>
</defs>
</svg>
