<svg width="33" height="32" viewBox="0 0 33 32" fill="none" xmlns="http://www.w3.org/2000/svg">
<g clip-path="url(#clip0_10_97)">
<path d="M16.465 5.33331C14.2762 5.33331 12.3946 5.92425 10.9183 7.18931C9.45061 8.44798 8.49274 10.2762 7.95941 12.5568C7.9028 12.7983 7.93215 13.052 8.04241 13.2743C8.15267 13.4965 8.33694 13.6733 8.56351 13.7744C8.79008 13.8754 9.04479 13.8943 9.28379 13.8278C9.5228 13.7613 9.73115 13.6136 9.87301 13.4101C10.5471 12.4458 11.2213 11.8677 11.8698 11.569C12.497 11.281 13.1733 11.2234 13.9498 11.4304C14.7306 11.6394 15.3365 12.2538 16.2858 13.2864L16.3178 13.3205C17.0346 14.0992 17.9071 15.0485 19.1018 15.7866C20.3434 16.5525 21.8858 17.0666 23.9317 17.0666C26.1205 17.0666 28.0021 16.4757 29.4783 15.2106C30.9461 13.952 31.9061 12.1237 32.4373 9.84318C32.4939 9.60165 32.4645 9.34793 32.3543 9.1257C32.244 8.90347 32.0597 8.72662 31.8332 8.62559C31.6066 8.52455 31.3519 8.50565 31.1129 8.57213C30.8739 8.63862 30.6655 8.78633 30.5237 8.98985C29.8495 9.95411 29.1754 10.5322 28.5269 10.8309C27.8997 11.1189 27.2234 11.1765 26.4469 10.9696C25.6661 10.7605 25.0602 10.1461 24.1109 9.11358L24.0789 9.07945C23.3621 8.30078 22.4895 7.35145 21.2949 6.61331C20.0533 5.84745 18.5109 5.33331 16.465 5.33331ZM8.99834 14.9333C6.80954 14.9333 4.92794 15.5242 3.45168 16.7893C1.98394 18.048 1.02608 19.8762 0.492742 22.1568C0.436134 22.3983 0.465485 22.652 0.575743 22.8743C0.686002 23.0965 0.870272 23.2733 1.09684 23.3744C1.32342 23.4754 1.57812 23.4943 1.81712 23.4278C2.05613 23.3613 2.26449 23.2136 2.40634 23.0101C3.08048 22.0458 3.75461 21.4677 4.40314 21.169C5.03034 20.881 5.70661 20.8234 6.48314 21.0304C7.26394 21.2394 7.86981 21.8538 8.81914 22.8864L8.85114 22.9205C9.56794 23.6992 10.4405 24.6485 11.6351 25.3866C12.8767 26.1525 14.4191 26.6666 16.465 26.6666C18.6538 26.6666 20.5354 26.0757 22.0117 24.8106C23.4794 23.552 24.4394 21.7237 24.9706 19.4432C25.0272 19.2016 24.9979 18.9479 24.8876 18.7257C24.7774 18.5035 24.5931 18.3266 24.3665 18.2256C24.1399 18.1246 23.8852 18.1057 23.6462 18.1721C23.4072 18.2386 23.1989 18.3863 23.057 18.5898C22.3829 19.5541 21.7087 20.1322 21.0602 20.4309C20.433 20.7189 19.7567 20.7765 18.9802 20.5696C18.1994 20.3605 17.5935 19.7461 16.6442 18.7136L16.6122 18.6794C15.8975 17.9008 15.0229 16.9514 13.8282 16.2133C12.5866 15.4453 11.0442 14.9333 8.99834 14.9333Z" fill="#0D99FF"/>
</g>
<defs>
<clipPath id="clip0_10_97">
<rect width="32" height="32" fill="white" transform="translate(0.464966)"/>
</clipPath>
</defs>
</svg>
