<svg width="32" height="32" viewBox="0 0 32 32" fill="none" xmlns="http://www.w3.org/2000/svg">
<path d="M12 4H16V12H12C10.9391 12 9.92172 11.5786 9.17157 10.8284C8.42143 10.0783 8 9.06087 8 8C8 6.93913 8.42143 5.92172 9.17157 5.17157C9.92172 4.42143 10.9391 4 12 4Z" fill="#F4511E"/>
<path d="M20 12H16V4H20C21.0609 4 22.0783 4.42143 22.8284 5.17157C23.5786 5.92172 24 6.93913 24 8C24 9.06087 23.5786 10.0783 22.8284 10.8284C22.0783 11.5786 21.0609 12 20 12Z" fill="#FF8A65"/>
<path d="M16 16C16 18.2091 17.7909 20 20 20C22.2091 20 24 18.2091 24 16C24 13.7909 22.2091 12 20 12C17.7909 12 16 13.7909 16 16Z" fill="#29B6F6"/>
<path d="M12 12H16V20H12C10.9391 20 9.92172 19.5786 9.17157 18.8284C8.42143 18.0783 8 17.0609 8 16C8 14.9391 8.42143 13.9217 9.17157 13.1716C9.92172 12.4214 10.9391 12 12 12Z" fill="#7C4DFF"/>
<path d="M12 20H16V24C16 25.0609 15.5786 26.0783 14.8284 26.8284C14.0783 27.5786 13.0609 28 12 28C10.9391 28 9.92172 27.5786 9.17157 26.8284C8.42143 26.0783 8 25.0609 8 24C8 22.9391 8.42143 21.9217 9.17157 21.1716C9.92172 20.4214 10.9391 20 12 20Z" fill="#00E676"/>
</svg>
