<svg width="33" height="32" viewBox="0 0 33 32" fill="none" xmlns="http://www.w3.org/2000/svg">
<g clip-path="url(#clip0_10_93)">
<path d="M19.1317 14.4L25.1317 17.7333M19.1317 14.4L7.79834 20.6666M19.1317 14.4V7.73331M1.79834 4.66665L7.79834 1.33331L13.7983 4.66665M1.79834 4.66665V24L13.7983 30.6666M1.79834 4.66665L7.79834 7.99998M13.7983 30.6666L25.1317 24.4V11.0666M13.7983 30.6666V24M25.1317 11.0666L31.1317 7.73331M25.1317 11.0666L19.1317 7.73331M31.1317 7.73331V14.4L13.7983 24M31.1317 7.73331L25.1317 4.39998L19.1317 7.73331M13.7983 24L7.79834 20.6666M7.79834 20.6666V7.99998M7.79834 7.99998L13.7983 4.66665M13.7983 4.66665V17.3333" stroke="#F24822" stroke-width="2.66667" stroke-linecap="round" stroke-linejoin="round"/>
</g>
<defs>
<clipPath id="clip0_10_93">
<rect width="32" height="32" fill="white" transform="translate(0.464966)"/>
</clipPath>
</defs>
</svg>
