<svg width="33" height="32" viewBox="0 0 33 32" fill="none" xmlns="http://www.w3.org/2000/svg">
<g clip-path="url(#clip0_10_133)">
<path d="M0.464966 22.8282H1.52547V18.6415L3.16697 22.291C3.36022 22.7335 3.62497 22.8887 4.14547 22.8887C4.66597 22.8887 4.91997 22.7335 5.11322 22.291L6.75472 18.6415V22.828H7.81522V18.6485C7.81522 18.2402 7.65222 18.043 7.31522 17.9415C6.50947 17.6905 5.96947 17.9072 5.72447 18.4512L4.11422 22.0537L2.55472 18.4512C2.32047 17.9072 1.76972 17.6905 0.964966 17.9415C0.627966 18.043 0.464966 18.2402 0.464966 18.6485L0.464966 22.8282ZM8.69747 19.42H9.75697V21.7267C9.74722 21.8517 9.79697 22.1457 10.378 22.1555H12.6837V19.4082H13.7462C13.7512 19.4082 13.7442 23.1542 13.7442 23.17C13.75 24.0937 12.5987 24.294 12.0675 24.3097H8.71997V23.5967L12.0735 23.5957C12.756 23.5245 12.675 23.1845 12.675 23.0712V22.793H10.422C9.37322 22.7832 8.70622 22.3252 8.69747 21.7987C8.69647 21.751 8.71997 19.4435 8.69747 19.42Z" fill="#00618A"/>
<path d="M14.5627 22.8283H17.6115C17.968 22.8283 18.3147 22.753 18.59 22.6243C19.049 22.4143 19.2725 22.1283 19.2725 21.7543V20.9798C19.2725 20.674 19.0185 20.388 18.5185 20.1985C18.2537 20.096 17.9267 20.0423 17.6112 20.0423H16.326C15.8982 20.0423 15.6942 19.9133 15.6435 19.6283C15.6337 19.594 15.6337 19.5668 15.6337 19.5325V19.05C15.6337 19.0228 15.6337 18.9953 15.6435 18.9613C15.6942 18.7445 15.8065 18.683 16.1835 18.6488L16.286 18.642H19.3132V17.936H16.337C15.9092 17.936 15.6847 17.9633 15.4805 18.024C14.8487 18.2213 14.5732 18.5338 14.5732 19.0778V19.696C14.5732 20.1715 15.1132 20.5798 16.0205 20.6745L16.3262 20.6883H17.4277C17.4687 20.6883 17.5087 20.6883 17.54 20.695C17.876 20.7223 18.0185 20.7838 18.121 20.906C18.1737 20.9548 18.204 21.0243 18.202 21.0955V21.7148C18.202 21.789 18.1512 21.8848 18.0497 21.9658C17.958 22.0478 17.8047 22.1015 17.6015 22.1153L17.4892 22.122H14.5627V22.8283ZM25.887 21.5978C25.887 22.3253 26.428 22.7325 27.5177 22.8145L27.8245 22.8283H30.5872V22.1213H27.804C27.182 22.1213 26.9475 21.965 26.9475 21.591V17.9345H25.888V21.5975L25.887 21.5978ZM19.9495 21.6348V19.1143C19.9495 18.4745 20.3997 18.086 21.2882 17.9638C21.383 17.9501 21.4787 17.9432 21.5745 17.9433H23.5862C23.6887 17.9433 23.7805 17.95 23.8832 17.9638C24.772 18.0858 25.2212 18.4745 25.2212 19.1143V21.6348C25.2212 22.1543 25.0307 22.4318 24.5905 22.6133L25.6355 23.5558H24.404L23.5592 22.793L22.7087 22.8468H21.575C21.3643 22.8461 21.1546 22.8165 20.952 22.7588C20.2772 22.5753 19.95 22.2208 19.95 21.6348H19.9495ZM21.094 21.5733C21.094 21.6075 21.1037 21.6415 21.1145 21.6828C21.176 21.9758 21.4515 22.1388 21.8702 22.1388H22.8332L21.9485 21.34H23.18L23.9515 22.0373C24.094 21.961 24.1867 21.8458 24.22 21.6965C24.2297 21.6623 24.2297 21.6283 24.2297 21.594V19.177C24.2297 19.1498 24.2297 19.1155 24.22 19.0813C24.1585 18.8088 23.883 18.6525 23.474 18.6525H21.8705C21.4007 18.6525 21.0942 18.8565 21.0942 19.177L21.094 21.5733Z" fill="#E48E00"/>
<path d="M31.5197 16.7617C30.8684 16.7442 30.3702 16.8047 29.9444 16.9845C29.8234 17.0352 29.6299 17.0362 29.6104 17.1877C29.6769 17.258 29.6877 17.3625 29.7404 17.4475C29.8419 17.6125 30.0139 17.8322 30.1672 17.9475L30.6857 18.3185C31.0039 18.5127 31.3604 18.6242 31.6682 18.8185C31.8489 18.9337 32.0284 19.0782 32.2052 19.2082C32.2922 19.2717 32.3507 19.3722 32.4649 19.4122V19.3937C32.4054 19.3175 32.3897 19.213 32.3349 19.134L32.0937 18.8927C31.8584 18.5802 31.5594 18.3057 31.2412 18.0772C30.9872 17.8955 30.4209 17.6495 30.3144 17.3545L30.2959 17.336C30.4757 17.3165 30.6867 17.251 30.8517 17.207C31.1309 17.1317 31.3799 17.1512 31.6672 17.077L32.0569 16.9647V16.8915C31.9114 16.742 31.8079 16.5447 31.6487 16.409C31.2347 16.0565 30.7814 15.703 30.3147 15.408C30.0559 15.245 29.7367 15.1395 29.4622 15.0007C29.3704 14.954 29.2082 14.9305 29.1467 14.8522C29.0032 14.6687 28.9249 14.4362 28.8137 14.2222L28.1467 12.814C28.0062 12.4927 27.9142 12.1752 27.7384 11.8872C26.8977 10.5035 25.9914 9.66848 24.5879 8.84823C24.2902 8.67348 23.9297 8.60498 23.5509 8.51523L22.9387 8.47823C22.8147 8.42548 22.6857 8.27323 22.5687 8.19998C22.1039 7.90598 20.9114 7.26748 20.5667 8.10723C20.3499 8.63748 20.8919 9.15498 21.0862 9.42373C21.2219 9.61223 21.3967 9.82323 21.4934 10.035C21.5579 10.1737 21.5687 10.3132 21.6234 10.4607C21.7582 10.824 21.8754 11.2185 22.0502 11.5545C22.1382 11.7245 22.2347 11.9032 22.3462 12.0545C22.4144 12.1472 22.5317 12.1892 22.5502 12.3327C22.4359 12.493 22.4292 12.741 22.3647 12.944C22.0747 13.857 22.1839 14.9917 22.6059 15.6685C22.7349 15.8755 23.0394 16.3207 23.4584 16.15C23.8247 16.0005 23.7427 15.5387 23.8472 15.1305C23.8717 15.0387 23.8569 14.9702 23.9029 14.9087V14.9272L24.2369 15.5942C24.4839 15.9917 24.9214 16.4067 25.2927 16.687C25.4859 16.8325 25.6374 17.0845 25.8864 17.1695V17.15H25.8679C25.8192 17.0757 25.7439 17.0445 25.6824 16.984C25.5369 16.8415 25.3757 16.6647 25.2567 16.5015C24.9187 16.0435 24.6199 15.5415 24.3484 15.019C24.2184 14.77 24.1052 14.4945 23.9959 14.2407C23.9539 14.143 23.9549 13.9947 23.8669 13.9447C23.7469 14.1302 23.5702 14.2807 23.4772 14.5005C23.3287 14.851 23.3102 15.2797 23.2544 15.7232L23.2174 15.7417C22.9597 15.6792 22.8687 15.4137 22.7732 15.186C22.5299 14.6097 22.4852 13.681 22.6989 13.018C22.7537 12.8462 23.0037 12.305 22.9022 12.147C22.8544 11.9887 22.6952 11.897 22.6062 11.776C22.4898 11.6137 22.3904 11.44 22.3094 11.2575C22.1112 10.8072 22.0184 10.3035 21.8094 9.84923C21.7099 9.63148 21.5409 9.41173 21.4022 9.21848C21.2479 9.00473 21.0759 8.84748 20.9569 8.58848C20.9149 8.49673 20.8574 8.34923 20.9199 8.25448C20.9394 8.19098 20.9687 8.16473 21.0312 8.14423C21.1387 8.06123 21.4384 8.17148 21.5497 8.21748C21.8474 8.34148 22.0957 8.45873 22.3474 8.62573C22.4674 8.70573 22.5897 8.86098 22.7362 8.90398H22.9032C23.1639 8.96348 23.4559 8.92148 23.7002 8.99573C24.1309 9.12648 24.5177 9.33073 24.8672 9.55248C25.9354 10.2262 26.8087 11.1862 27.4062 12.3317C27.5029 12.5162 27.5439 12.692 27.6289 12.8875C27.7999 13.282 28.0147 13.6882 28.1847 14.074C28.3547 14.4597 28.5197 14.8475 28.7589 15.1677C28.8849 15.3357 29.3722 15.4255 29.5929 15.5192C29.7482 15.5847 30.0022 15.653 30.1487 15.742C30.4299 15.911 30.7014 16.112 30.9652 16.2977C31.0959 16.3915 31.5004 16.5947 31.5209 16.7615L31.5197 16.7617ZM23.2354 9.70123C23.1233 9.69943 23.0114 9.71186 22.9024 9.73823V9.75673H22.9209C22.9854 9.89048 23.0997 9.97648 23.1797 10.0907L23.3652 10.4795L23.3837 10.462C23.4989 10.381 23.5507 10.251 23.5507 10.0537C23.5039 10.005 23.4979 9.94448 23.4579 9.88673C23.4052 9.80948 23.3029 9.76673 23.2354 9.70123Z" fill="#00618A"/>
</g>
<defs>
<clipPath id="clip0_10_133">
<rect width="32" height="32" fill="white" transform="translate(0.464966)"/>
</clipPath>
</defs>
</svg>
