<svg width="32" height="32" viewBox="0 0 32 32" fill="none" xmlns="http://www.w3.org/2000/svg">
<path d="M30.2699 23.0001L23.3399 11.0001C23.1661 10.6949 22.9143 10.4415 22.6103 10.2658C22.3063 10.0901 21.961 9.99837 21.6099 10.0001C21.2583 9.99627 20.9122 10.0871 20.6079 10.263C20.3035 10.439 20.052 10.6935 19.8799 11.0001L17.6099 14.9301L13.7299 8.22006C13.5549 7.91596 13.3028 7.66337 12.9991 7.48773C12.6954 7.31208 12.3507 7.2196 11.9999 7.2196C11.649 7.2196 11.3044 7.31208 11.0006 7.48773C10.6969 7.66337 10.4449 7.91596 10.2699 8.22006L1.72986 23.0001C1.55441 23.3039 1.462 23.6486 1.46191 23.9995C1.46182 24.3504 1.55406 24.6952 1.72935 24.9992C1.90464 25.3031 2.15683 25.5557 2.46058 25.7313C2.76434 25.907 3.10896 25.9997 3.45986 26.0001H12.3749C13.4283 26.0001 14.4632 25.7228 15.3755 25.196C16.2878 24.6692 17.0453 23.9115 17.5719 22.9991L21.6099 16.0001L25.0699 22.0001H22.7599L20.4499 26.0001H28.5399C28.8908 25.9997 29.2354 25.907 29.5391 25.7313C29.8429 25.5557 30.0951 25.3031 30.2704 24.9992C30.4457 24.6952 30.5379 24.3504 30.5378 23.9995C30.5377 23.6486 30.4453 23.3039 30.2699 23.0001ZM12.3739 22.0001H6.92986L11.9999 13.2201L15.2999 18.9301L14.1069 20.9991C13.9314 21.3034 13.6788 21.5562 13.3746 21.7319C13.0703 21.9076 12.7252 22.0001 12.3739 22.0001Z" fill="#00E676"/>
</svg>
