<svg width="33" height="32" viewBox="0 0 33 32" fill="none" xmlns="http://www.w3.org/2000/svg">
<path d="M29.1463 24.6773C29.4343 28.3747 29.4343 30.108 29.4343 32H20.8783C20.8783 31.588 20.8863 31.2107 20.8929 30.8293C20.9169 29.64 20.9409 28.4013 20.7476 25.8987C20.4943 22.236 18.9156 21.4213 16.0143 21.4213H2.56359V14.7547H16.4249C20.0889 14.7547 21.9209 13.6413 21.9209 10.6893C21.9209 8.09467 20.0889 6.52267 16.4249 6.52267H2.56226V0H17.9503C26.2449 0 30.3676 3.91733 30.3676 10.176C30.3676 14.8573 27.4663 17.9093 23.5489 18.4187C26.8556 19.0813 28.7889 20.964 29.1463 24.6773ZM2.56226 32V27.0307H11.6076C13.1183 27.0307 13.4463 28.1507 13.4463 28.82V32H2.56226Z" fill="white"/>
</svg>
