<?xml version="1.0" encoding="UTF-8"?>
<svg id="Layer_1" xmlns="http://www.w3.org/2000/svg" version="1.1" xmlns:xlink="http://www.w3.org/1999/xlink" viewBox="0 0 16 16">
  <!-- Generator: Adobe Illustrator 29.1.0, SVG Export Plug-In . SVG Version: 2.1.0 Build 142)  -->
  <defs>
    <style>
      .st0 {
        fill: url(#linear-gradient);
        opacity: .3;
      }

      .st1 {
        fill: #fff;
      }
    </style>
    <linearGradient id="linear-gradient" x1="6.5" y1="8.15" x2="7.23" y2="8.15" gradientUnits="userSpaceOnUse">
      <stop offset="0" stop-color="#fff" stop-opacity="0"/>
      <stop offset="1" stop-color="#000"/>
    </linearGradient>
  </defs>
  <rect x="0" y="0" width="16" height="16" rx="8" ry="8"/>
  <g>
    <g>
      <path class="st1" d="M5.73,2.25c1.4,0,2.64.77,3.05,2.17l-1.63.37c-.28-.61-.76-1-1.44-1-1.12,0-1.7,1.07-1.7,2.09s.58,2.04,1.72,2.04c.7,0,1.2-.38,1.49-1l1.63.36c-.39,1.41-1.69,2.17-3.12,2.17-2,0-3.45-1.54-3.45-3.56s1.39-3.65,3.46-3.65Z"/>
      <path class="st0" d="M7.22,6.91s-.36.65-.71.8l-.02,1.68s.33-.06.73-.23v-2.24Z"/>
      <path class="st1" d="M10.01,6.92c2.01,0,3.62,1.26,3.62,3.4s-1.57,3.42-3.64,3.42h-2.78v-6.82h2.8ZM9.91,12.27c1.18,0,2-.69,2-1.93s-.77-1.93-2-1.93h-1.02v3.86h1.02Z"/>
    </g>
    <path class="st1" d="M7.15,4.79h1.69s0-.17-.06-.37c-.05-.17-1.63.22-1.63.22v.15Z"/>
  </g>
</svg>